<svg version="1.2" xmlns="http://www.w3.org/2000/svg" viewBox="0 0 191 272" width="191" height="272">
	<title>OBJECTS</title>
	<style>
		.s0 { fill: #fab29a } 
		.s1 { opacity: .5;mix-blend-mode: multiply;fill: #cc8a79 } 
	</style>
	<g id="OBJECTS">
		<g id="-e-paper">
			<path id="&lt;Path&gt;" class="s0" d="m119 173.6l-24.5 57.2-17.4 40.6h-28.7v-56.7c0 0-7.8-4.7-21.9-21.3-14.3-16.9-13.4-49.7-12.4-61.7l-13.1-70c-1.1-5.5 2.6-10.7 8.1-11.7 5.3-0.9 10.3 2.8 11.4 8.1l13.5 60.7c0.2 1 1.1 1.7 2.2 1.6 1.1-0.2 1.9-1.2 1.7-2.3l-9-84.4c-0.8-6.1 3.5-11.8 9.7-12.5 5.9-0.7 11.3 3.7 12.3 9.6l11.1 79.8c0.1 0.9 0.8 1.5 1.6 1.7 1.3 0.2 2.4-0.8 2.3-2.1l-3-95.7c-0.8-6.7 4-12.8 10.7-13.6 6.4-0.8 12.3 3.5 13.5 9.8l5.4 93c0.7 3.4 3.6 2.2 4.7-1.1l9.7-75.8c1.6-4.7 5.9-7.7 10.7-7.7q1.4 0 2.8 0.4c5.9 1.4 9.5 7.2 8.4 13.1l-5.1 72.4-0.4 6.2-0.6 9c0.9 4.4 1.3 10.3 2.7 17.9 0.7 4.1 1.8 8.6 3.4 13.7 3 9.5-2.7 16.7-9.8 21.8z"/>
			<path id="&lt;Path&gt;" class="s1" d="m119 173.6l-24.5 57.2c-13.8-0.6-25-7.8-28.6-27.3-11.8-64.2 48.2-61 48.2-61 2.3-1.2 7.2-3 11.3-4.4 0.7 4.1 1.8 8.6 3.4 13.7 3 9.5-2.7 16.7-9.8 21.8z"/>
			<path id="&lt;Path&gt;" class="s0" d="m189.6 146.3c-3.5-6.9-11.7-15.3-24.9-15.3-16.5 0-24.3 9.2-24.3 9.2 0 0-11.6-0.4-23.5 6.5 0 0-51.7 0.9-51.7 51.9v72.8h43.6v-58.9l13-19.3c5.9-6.6 16.5-17.8 26.3-24 0 0 24.5-11.5 38.4-15.7 3.1-0.9 4.6-4.3 3.1-7.2z"/>
			<path id="&lt;Path&gt;" class="s1" d="m123.7 105l-0.4 6.2c-74.9 2.4-100.4 19.2-103.4 21.3 29.3-23.6 93-27.1 103.8-27.5z"/>
		</g>
	</g>
</svg>