<svg version="1.2" xmlns="http://www.w3.org/2000/svg" viewBox="0 0 125 176" width="125" height="176">
	<title>OBJECTS</title>
	<style>
		.s0 { fill: #fab29a } 
		.s1 { opacity: .5;mix-blend-mode: multiply;fill: #cc8a79 } 
	</style>
	<g id="OBJECTS">
		<g id="-e-rock">
			<path id="&lt;Path&gt;" class="s0" d="m113 61.7l-48.9 113.8h-28.7v-56.7c0 0-7.8-4.7-21.9-21.3-8.7-10.3-11.8-26.6-12.6-40.4q0 0 0 0c-0.8-14.3 0.6-25.9 0.6-25.9l8.8-2.9 18.8 0.2 27.2 0.4-0.6-6.1 31.1-14.2 4.1-3.9 2.2-2c0 0 9.8-0.7 15 14.3 0 0 3.6 17.5 2.7 36.7q-0.1 1-0.2 2l1.6 3.9z"/>
			<path id="&lt;Path&gt;" class="s1" d="m112 63.9l0.2 7-3.1-0.3-24.7 57.6c-13.8 4.2-26.6 4.8-30.8-4.7-10.6-23.7 0.7-39 0.7-39-31.1 3.2-45.5-5.6-51.3-11.2-4.2-20.4-1.5-42.1-1.5-42.1l8.8-2.9 46 0.6-0.6-6.1 13.5-6.2-2.7 30.8 18.9 9.1 26.3-2.1 0.2 4.5 1.1 2.8z"/>
			<path id="&lt;Path&gt;" class="s1" d="m112.2 59.6l-10.5-0.4-10.8-54.5 2.2-2c0 0 9.8-0.7 15 14.3 0 0 3.6 17.5 2.7 36.7q-0.1 1-0.2 2z"/>
			<path id="&lt;Path&gt;" class="s0" d="m105.8 55.3c-0.2-4.1-0.6-9.4-1.1-15-1-11.6-2.4-24.3-3.3-28.7-1.6-8.3-7.1-12-15.6-11.2-8.4 1-12 7.6-12 7.6l3.7 33.1 2.4 21.3c0 0-0.1 0.7-0.4 1.7 2.4 5 5.3 7.6 8.2 8.7 8.4 3.2 17.4-6.7 18-10.4 0.2-1.1 0.2-3.7 0.1-7.1z"/>
			<path id="&lt;Path&gt;" class="s0" d="m77.5 41.1l-3.7-33.1q-2.9-1.5-5.4-2.2c-14-4.1-21.1 8.6-21.1 8.6l6.8 47.9c0 0 0 1.4-0.3 3.3 1.4 4.7 4.6 10.1 11.9 9.2 4.4-0.6 7.5-2.3 9.6-4.3 2.4-2.2 3.6-4.8 4.2-6.4 0.3-1 0.4-1.7 0.4-1.7z"/>
			<path id="&lt;Path&gt;" class="s0" d="m24.5 73.6c-1.7 1.1-4.2 1.8-7.9 1.8-11.5 0-11.5-7.1-15.1-44.2 0 0 2.4-12.6 16.1-10.6q2 0.3 4.3 1l6 46.4c0 0 0.1 3.4-3.4 5.6z"/>
			<path id="&lt;Path&gt;" class="s0" d="m54.1 62.3c0 0 0.1 5.4-2.7 9.5-1.4 2.1-3.5 3.8-6.7 4.4-8.7 1.5-14.2-1-16.8-8.2l-6-46.4c0 0 5.6-11.9 19.4-9.2q2.7 0.6 6 2z"/>
			<path id="&lt;Path&gt;" class="s1" d="m79.9 62.4c0 0-0.7 4.5-4.6 8.1l-6.9-64.7q2.5 0.7 5.4 2.2z"/>
			<path id="&lt;Path&gt;" class="s1" d="m54.1 62.3c0 0 0.1 5.4-2.7 9.5l-10.1-59.4q2.7 0.6 6 2z"/>
			<path id="&lt;Path&gt;" class="s1" d="m24.5 73.6l-6.9-53q2 0.3 4.3 1l6 46.4c0 0 0.1 3.4-3.4 5.6z"/>
			<path id="&lt;Path&gt;" class="s1" d="m104.7 40.3q-0.7-0.1-1.6-0.1c-5.2 0.2-13.1 1.2-25.6 0.9q-0.7 0-1.4 0c-5.5-0.1-11.8-0.5-19-1.3-1.6-0.2-3.2 0.7-3.8 2.2-0.5 1.1-1 2.7-1.5 4.5l2.3 15.8c0 0 0 1.4-0.3 3.3 1.4 4.7 4.6 10.1 11.9 9.2 4.4-0.6 7.5-2.3 9.6-4.3 2.4-2.2 3.6-4.8 4.2-6.4 2.4 5 5.3 7.6 8.2 8.7 7.8-4.4 14-11.8 18.1-17.5 3.3-4.7 5.1-8.2 5.1-8.2 0 0 0.1-6.1-6.2-6.8z"/>
			<path id="&lt;Path&gt;" class="s0" d="m52.3 102.7v72.8h43.6v-58.9l27-40.1c1.8-2.5 1.9-5.9 0.3-8.6l-12.3-20.8c-1.8-3-5.2-4.5-8.6-3.9-7.9 1.6-23.4 3.7-42.9 1.2-2.1-0.3-4 1.2-4.3 3.3-1.1 7.6-0.6 24.3 23.3 26.5 0 0-23.2 5.8-26.1 28.5z"/>
		</g>
	</g>
</svg>