<svg version="1.2" xmlns="http://www.w3.org/2000/svg" viewBox="0 0 133 270" width="133" height="270">
	<title>OBJECTS</title>
	<style>
		.s0 { fill: #fab29a } 
		.s1 { opacity: .5;mix-blend-mode: multiply;fill: #cc8a79 } 
	</style>
	<g id="OBJECTS">
		<g id="-e-scissors">
			<path id="&lt;Path&gt;" class="s0" d="m132.9 27q0 1.1-0.2 2.2l-22.2 111.2-1.1 5.9-0.1 0.5-4.2 7.7-10.4 19.2-0.5 0.9-23.2 5.5-10.5-11.8-5.6-6.4-4.2-29.7-1.4-9.5-2-14.4-0.3-2q0-0.1 0-0.1l-12.5-92.3c-0.8-6.7 4-12.7 10.7-13.6q0.8-0.1 1.5-0.1c5.8 0 10.9 4.1 12.1 10l19.3 94.6c0.7 3.5 5.4 3.8 6.5 0.5l26.2-81.9c1.9-5.6 7.8-8.9 13.6-7.4 5.1 1.3 8.5 5.9 8.5 11z"/>
			<path id="&lt;Path&gt;" class="s0" d="m113 155.6l-48.9 113.8h-28.7v-56.7c0 0-7.7-4.7-21.9-21.3-12-14.2-13.2-39.6-12.8-54.5 0.3-7.1 0.9-11.8 0.9-11.8l8.7-2.9 8 0.1 31 0.4h3.1l48 0.7 4 10.2 5 12.7 1.2 3.2z"/>
			<path id="&lt;Compound Path&gt;" class="s1" d="m113 155.6l-1.1-2.8-0.1-4.5-6.6 0.5c3.2-4.5 4.9-7.8 4.9-7.8 0 0 0.1-6.1-6.2-6.8q-0.7-0.1-1.6-0.1c-5.2 0.2-13.1 1.2-25.6 1q-0.7-0.1-1.4-0.1c-5.4-0.1-11.7-0.5-19-1.3q-0.8-0.1-1.6 0.2-0.1-0.8-0.4-1.8v-0.3c-0.5-2.2-1.3-5.5-2.1-8.8l-0.1-0.3c0 0-2-9.1-4.8-14.4-2.8-1.3-5.4-2-7.7-2.2l0.8 16.5-30.1-0.4-8.7 2.9c0 0-2.8 21.7 1.4 42.1 5.9 5.6 20.3 14.4 51.3 11.2 0 0-11.2 15.3-0.7 39 4.2 9.5 17 8.9 30.9 4.7l24.6-57.6 3.1 0.3-0.2-7z"/>
			<path id="&lt;Path&gt;" class="s0" d="m27.9 161.9c0 0 0.1 3.3-3.3 5.5q-0.6 0.4-1.4 0.8c-1.6 0.7-3.7 1.1-6.6 1.1-11.5 0-11.5-7.1-15-44.2 0 0 2.4-12.9 16.6-10.5q0.6 0.1 1.4 0.2 1.1 0.3 2.3 0.7z"/>
			<path id="&lt;Path&gt;" class="s0" d="m54.1 156.2q0 0 0 0.1c0 1.1-0.3 12.3-9.4 13.8-8.7 1.5-14.2-1-16.8-8.2l-6-46.4c0 0 5.1-11 17.7-9.4 2.3 0.2 4.9 0.9 7.7 2.2l2 14.4 1.4 9.8z"/>
			<path id="&lt;Path&gt;" class="s1" d="m27.9 161.9c0 0 0.1 3.3-3.3 5.5l-6.4-52.8q0.6 0.1 1.4 0.2 1.1 0.3 2.3 0.7z"/>
			<path id="&lt;Path&gt;" class="s0" d="m52.3 196.6v72.8h43.6v-58.9l27-40.1c1.8-2.5 1.9-5.9 0.3-8.6l-12.3-20.8c-1.8-3-5.2-4.5-8.6-3.8-7.9 1.5-23.4 3.6-42.9 1.1-2.1-0.3-4 1.2-4.3 3.3-1.1 7.6-0.6 24.3 23.3 26.5 0 0-23.2 5.8-26.1 28.5z"/>
		</g>
	</g>
</svg>